HIERARCHY
ROOT Hips
{
	OFFSET -0.001795 -0.223333 0.028219
	CHANNELS 6 Xposition Yposition Zposition Zrotation Yrotation Xrotation 
	JOINT LeftUpLeg
	{
		OFFSET 0.069520 -0.091406 -0.006815
		CHANNELS 3 Zrotation Yrotation Xrotation
		JOINT LeftLeg
		{
			OFFSET 0.034277 -0.375199 -0.004496
			CHANNELS 3 Zrotation Yrotation Xrotation
			JOINT LeftFoot
			{
				OFFSET -0.013596 -0.397961 -0.043693
				CHANNELS 3 Zrotation Yrotation Xrotation
				JOINT LeftToe
				{
					OFFSET 0.026358 -0.055791 0.119288
					CHANNELS 3 Zrotation Yrotation Xrotation
					End Site
					{
						OFFSET 0.000000 0.000000 0.000000
					}
				}
			}
		}
	}
	JOINT RightUpLeg
	{
		OFFSET -0.067670 -0.090522 -0.004320
		CHANNELS 3 Zrotation Yrotation Xrotation
		JOINT RightLeg
		{
			OFFSET -0.038290 -0.382569 -0.008850
			CHANNELS 3 Zrotation Yrotation Xrotation
			JOINT RightFoot
			{
				OFFSET 0.015774 -0.398415 -0.042312
				CHANNELS 3 Zrotation Yrotation Xrotation
				JOINT RightToe
				{
					OFFSET -0.025372 -0.048144 0.123348
					CHANNELS 3 Zrotation Yrotation Xrotation
					End Site
					{
						OFFSET 0.000000 0.000000 0.000000
					}
				}
			}
		}
	}
	JOINT Spine
	{
		OFFSET -0.002533 0.108963 -0.026696
		CHANNELS 3 Zrotation Yrotation Xrotation
		JOINT Spine1
		{
			OFFSET 0.005487 0.135180 0.001092
			CHANNELS 3 Zrotation Yrotation Xrotation
			JOINT Spine2
			{
				OFFSET 0.001457 0.052922 0.025425
				CHANNELS 3 Zrotation Yrotation Xrotation
				JOINT Neck
				{
					OFFSET -0.002778 0.213870 -0.042857
					CHANNELS 3 Zrotation Yrotation Xrotation
					JOINT Head
					{
						OFFSET 0.005152 0.064970 0.051349
						CHANNELS 3 Zrotation Yrotation Xrotation
						End Site
						{
							OFFSET 0.000000 0.000000 0.000000
						}
					}
				}
				JOINT LeftShoulder
				{
					OFFSET 0.078845 0.121749 -0.034090
					CHANNELS 3 Zrotation Yrotation Xrotation
					JOINT LeftArm
					{
						OFFSET 0.090977 0.030469 -0.008868
						CHANNELS 3 Zrotation Yrotation Xrotation
						JOINT LeftForeArm
						{
							OFFSET 0.259612 -0.012772 -0.027456
							CHANNELS 3 Zrotation Yrotation Xrotation
							JOINT LeftHand
							{
								OFFSET 0.249234 0.008986 -0.001171
								CHANNELS 3 Zrotation Yrotation Xrotation
								End Site
								{
									OFFSET 0.000000 0.000000 0.000000
								}
							}
						}
					}
				}
				JOINT RightShoulder
				{
					OFFSET -0.081759 0.118833 -0.038615
					CHANNELS 3 Zrotation Yrotation Xrotation
					JOINT RightArm
					{
						OFFSET -0.096012 0.032551 -0.009143
						CHANNELS 3 Zrotation Yrotation Xrotation
						JOINT RightForeArm
						{
							OFFSET -0.253742 -0.013329 -0.021401
							CHANNELS 3 Zrotation Yrotation Xrotation
							JOINT RightHand
							{
								OFFSET -0.255298 0.007772 -0.005559
								CHANNELS 3 Zrotation Yrotation Xrotation
								End Site
								{
									OFFSET 0.000000 0.000000 0.000000
								}
							}
						}
					}
				}
			}
		}
	}
}
MOTION
Frames: 8
Frame Time: 0.050000
0.000000 0.912686 0.000000 -4.948094 -6.951790 -1.311344 2.550061 0.465416 5.877916 0.176800 -0.413490 29.165633 19.550747 28.731470 38.523186 0.000000 0.000000 0.000000 -6.214789 1.875996 -26.736385 7.412935 -0.880061 19.736709 -9.784843 -23.440920 13.258566 0.000000 0.000000 0.000000 -2.257723 -0.200418 18.994710 6.019832 -1.233339 -21.251748 0.806001 4.599207 25.965250 0.936024 1.480706 -30.946724 0.000000 0.000000 0.000000 -31.631534 -1.312550 -1.459450 -42.143174 -9.750588 -3.690692 -15.857221 -36.468624 7.142456 0.000000 0.000000 0.000000 26.173054 9.740726 4.598507 44.334766 7.610566 -3.712740 7.186957 27.336231 2.729636 0.000000 0.000000 0.000000 
0.024627 0.920081 -0.055837 -5.604239 -9.991113 0.641506 2.656788 0.412234 4.996434 -0.756597 0.136327 23.423054 31.831677 35.252362 54.112427 0.000000 0.000000 0.000000 -5.366205 2.501300 -28.933148 9.329428 -1.192826 24.345292 -11.388630 -26.548914 10.397388 0.000000 0.000000 0.000000 -3.815394 0.169306 18.097498 6.299322 -1.452831 -20.000816 4.225265 5.487961 25.361689 -1.737949 2.742424 -31.664740 0.000000 0.000000 0.000000 -32.077436 -2.296941 -0.369513 -42.298003 -10.462366 -3.541112 -17.902964 -37.451315 8.190835 0.000000 0.000000 0.000000 21.930050 11.295576 4.964559 46.067988 8.125181 -3.367605 8.234851 29.933862 3.234875 0.000000 0.000000 0.000000 
0.050042 0.924747 -0.111785 -4.529391 -12.781378 -0.004245 1.863227 0.560611 5.912989 -1.357829 0.370484 18.710193 37.425512 35.348892 68.151403 0.000000 0.000000 0.000000 -5.709565 2.719940 -29.690275 11.414210 -1.546616 29.014066 -13.533524 -30.254509 10.866031 0.000000 0.000000 0.000000 -2.551142 0.081351 19.877674 4.672429 -1.158875 -19.019964 2.843262 5.841290 25.894933 -3.235174 3.361162 -32.528521 0.000000 0.000000 0.000000 -32.622993 -3.409945 0.981759 -39.944215 -14.108596 -2.569450 -14.764751 -38.041537 7.246703 0.000000 0.000000 0.000000 20.252129 13.140059 5.600905 47.474399 11.651555 -2.164293 5.203719 33.151460 2.769322 0.000000 0.000000 0.000000 
0.075690 0.929964 -0.168098 -4.326733 -15.447664 1.619583 0.066755 0.448302 4.215161 0.739166 -0.105235 19.136144 23.070242 30.069883 45.884466 0.000000 0.000000 0.000000 -5.363394 3.230844 -31.245529 12.525999 -1.587054 31.234159 -15.018471 -32.682386 12.053158 0.000000 0.000000 0.000000 -3.697015 0.541802 22.098715 4.687635 -1.020481 -21.269906 3.306769 6.175689 27.485247 -6.042296 4.565383 -35.362109 0.000000 0.000000 0.000000 -33.915046 -2.426190 0.828554 -37.617076 -16.326112 -2.192619 -14.281147 -39.467462 7.463960 0.000000 0.000000 0.000000 21.469963 14.740489 6.293129 44.582878 13.463747 -1.527094 4.313215 35.460665 2.648517 0.000000 0.000000 0.000000 
0.102319 0.931414 -0.224341 -4.049481 -16.460695 3.157476 -0.519691 0.069407 0.704756 2.148034 -0.459787 19.562193 13.283948 22.219191 30.120302 0.000000 0.000000 0.000000 -6.147715 3.373463 -32.693493 15.395659 -2.454476 33.636880 -16.312426 -34.704744 12.856489 0.000000 0.000000 0.000000 -3.793556 0.812456 24.776170 4.736150 -1.026429 -21.324939 3.092693 6.154231 26.257480 -6.159737 4.529681 -35.726220 0.000000 0.000000 0.000000 -34.687798 -3.593818 1.789506 -36.839833 -17.668995 -1.764703 -11.308672 -39.237470 6.304938 0.000000 0.000000 0.000000 20.322539 15.372722 6.430005 45.126811 16.301338 -0.347023 3.105965 36.086742 2.283309 0.000000 0.000000 0.000000 
0.127991 0.929788 -0.277525 -4.114814 -17.727160 4.951386 -0.366353 -0.319056 -3.281800 1.967485 -0.290960 20.355251 7.992563 15.894126 15.466718 0.000000 0.000000 0.000000 -6.616343 3.560127 -33.682509 18.616668 -3.512345 37.196430 -16.669064 -35.732224 11.640879 0.000000 0.000000 0.000000 -3.643725 1.003901 26.476797 4.152905 -0.769690 -22.772466 2.680937 4.738830 26.637784 -6.912953 4.553715 -36.024890 0.000000 0.000000 0.000000 -31.824542 -3.701974 2.830424 -39.197529 -19.388037 -1.486001 -8.955380 -39.151802 5.692854 0.000000 0.000000 0.000000 19.347172 17.477493 6.967246 46.035185 18.261266 0.509655 0.837283 37.202094 1.509446 0.000000 0.000000 0.000000 
0.152483 0.924494 -0.327153 -4.167733 -18.514356 5.659023 0.181568 -0.555123 -6.632068 0.929909 0.128442 20.892390 5.721003 12.212212 5.516583 0.000000 0.000000 0.000000 -5.109859 3.700489 -31.990954 18.071134 -3.085845 37.653364 -16.619175 -36.107077 9.595546 0.000000 0.000000 0.000000 -3.956080 1.291708 27.916718 4.937686 -1.026875 -21.966752 1.701300 4.715812 25.219855 -8.037876 5.073820 -34.361833 0.000000 0.000000 0.000000 -30.727536 -3.975259 3.038176 -39.748146 -20.011287 -1.141201 -7.577379 -38.680018 5.135299 0.000000 0.000000 0.000000 19.090836 18.444988 7.372052 46.180157 19.177894 1.022735 -0.596392 39.008905 1.068296 0.000000 0.000000 0.000000 
0.175738 0.917405 -0.372785 -3.229561 -18.533052 5.926591 -0.105092 -0.800757 -10.093717 -1.135605 0.790125 20.460243 5.776104 12.408380 0.239838 0.000000 0.000000 0.000000 -4.115161 3.430765 -29.157286 17.132805 -2.613827 36.191382 -16.184895 -35.782363 7.001869 0.000000 0.000000 0.000000 -5.053019 1.727919 28.788824 5.979884 -1.082706 -23.744757 1.157316 3.665494 27.069417 -7.583649 4.720578 -34.096590 0.000000 0.000000 0.000000 -30.985100 -4.641325 4.125443 -39.262924 -22.509034 -0.770443 -5.215401 -38.121302 4.348465 0.000000 0.000000 0.000000 19.472269 19.096102 7.523110 44.721795 19.203388 0.815217 0.396129 41.559723 1.430936 0.000000 0.000000 0.000000 
